<svg xmlns="http://www.w3.org/2000/svg" xmlns:xlink="http://www.w3.org/1999/xlink" width="200" zoomAndPan="magnify" viewBox="0 0 150 149.999998" height="200" preserveAspectRatio="xMidYMid meet" version="1.0"><path fill="#ff69ad" d="M 75 123 C 65.785156 123 56.574219 119.484375 49.542969 112.457031 L 25.542969 88.457031 C 11.484375 74.398438 11.484375 51.601562 25.542969 37.542969 C 39.128906 23.960938 60.863281 23.5 75 36.164062 C 89.136719 23.5 110.871094 23.960938 124.457031 37.542969 C 138.515625 51.601562 138.515625 74.398438 124.457031 88.457031 L 100.457031 112.457031 C 93.425781 119.484375 84.214844 123 75 123 " fill-opacity="1" fill-rule="nonzero"/><path fill="#461036" d="M 67.925781 57.390625 C 67.925781 58.957031 66.65625 60.222656 65.09375 60.222656 C 63.53125 60.222656 62.265625 58.957031 62.265625 57.390625 C 62.265625 55.828125 63.53125 54.5625 65.09375 54.5625 C 66.65625 54.5625 67.925781 55.828125 67.925781 57.390625 " fill-opacity="1" fill-rule="nonzero"/><path stroke-linecap="butt" transform="matrix(0.45283, 0, 0, -0.45283, 67.924612, 57.392159)" fill="none" stroke-linejoin="miter" d="M 0.00258102 0.00338682 C 0.00258102 -3.455765 -2.800971 -6.250691 -6.251496 -6.250691 C -9.702022 -6.250691 -12.496948 -3.455765 -12.496948 0.00338682 C -12.496948 3.453912 -9.702022 6.248838 -6.251496 6.248838 C -2.800971 6.248838 0.00258102 3.453912 0.00258102 0.00338682 Z M 0.00258102 0.00338682 " stroke="#461036" stroke-width="6" stroke-opacity="1" stroke-miterlimit="10"/><path fill="#461036" d="M 87.734375 57.390625 C 87.734375 58.957031 86.46875 60.222656 84.90625 60.222656 C 83.34375 60.222656 82.074219 58.957031 82.074219 57.390625 C 82.074219 55.828125 83.34375 54.5625 84.90625 54.5625 C 86.46875 54.5625 87.734375 55.828125 87.734375 57.390625 " fill-opacity="1" fill-rule="nonzero"/><path stroke-linecap="butt" transform="matrix(0.45283, 0, 0, -0.45283, 87.735911, 57.392159)" fill="none" stroke-linejoin="miter" d="M -0.00339097 0.00338682 C -0.00339097 -3.455765 -2.798317 -6.250691 -6.248842 -6.250691 C -9.699368 -6.250691 -12.50292 -3.455765 -12.50292 0.00338682 C -12.50292 3.453912 -9.699368 6.248838 -6.248842 6.248838 C -2.798317 6.248838 -0.00339097 3.453912 -0.00339097 0.00338682 Z M -0.00339097 0.00338682 " stroke="#461036" stroke-width="6" stroke-opacity="1" stroke-miterlimit="10"/><path stroke-linecap="round" transform="matrix(0.45283, 0, 0, -0.45283, 65.099858, 68.716076)" fill="none" stroke-linejoin="round" d="M 0.00376355 0.00272032 C 10.001661 -16.326892 33.724024 -16.326892 43.721922 0.00272032 " stroke="#461036" stroke-width="10" stroke-opacity="1" stroke-miterlimit="10"/><path fill="#e34198" d="M 120.28125 65.882812 C 120.28125 58.066406 113.949219 51.730469 106.132812 51.730469 C 98.316406 51.730469 91.980469 58.066406 91.980469 65.882812 C 91.980469 73.699219 98.316406 80.035156 106.132812 80.035156 C 113.949219 80.035156 120.28125 73.699219 120.28125 65.882812 " fill-opacity="1" fill-rule="nonzero"/><path fill="#e34198" d="M 58.019531 65.882812 C 58.019531 58.066406 51.683594 51.730469 43.867188 51.730469 C 36.050781 51.730469 29.71875 58.066406 29.71875 65.882812 C 29.71875 73.699219 36.050781 80.035156 43.867188 80.035156 C 51.683594 80.035156 58.019531 73.699219 58.019531 65.882812 " fill-opacity="1" fill-rule="nonzero"/><path stroke-linecap="round" transform="matrix(0.45283, 0, 0, -0.45283, 65.099858, 68.716076)" fill="none" stroke-linejoin="round" d="M 0.00376355 0.00272032 C 10.001661 -16.326892 33.724024 -16.326892 43.721922 0.00272032 " stroke="#461036" stroke-width="10" stroke-opacity="1" stroke-miterlimit="10"/></svg>